<svg xmlns="http://www.w3.org/2000/svg" width="900" height="760" viewBox="0 0 900 760" preserveAspectRatio="xMidYMid slice">
  <defs>
    <linearGradient id="g" x1="0" y1="0" x2="1" y2="1">
      <stop offset="0" stop-color="#0d915f"></stop>
      <stop offset=".55" stop-color="#16a36b"></stop>
      <stop offset="1" stop-color="#0a6e48"></stop>
    </linearGradient>
    <radialGradient id="hi" cx=".74" cy=".18" r=".9">
      <stop offset="0" stop-color="#ffffff" stop-opacity=".3"></stop>
      <stop offset="1" stop-color="#ffffff" stop-opacity="0"></stop>
    </radialGradient>
    <radialGradient id="vg" cx=".5" cy=".5" r=".75">
      <stop offset=".6" stop-color="#000000" stop-opacity="0"></stop>
      <stop offset="1" stop-color="#053b27" stop-opacity=".35"></stop>
    </radialGradient>
    <pattern id="stars" width="92" height="92" patternUnits="userSpaceOnUse" patternTransform="translate(40 20)">
      <path d="M46 14l4 8 8-2-4 8 8 4-8 4 4 8-8-2-4 8-4-8-8 2 4-8-8-4 8-4-4-8 8 2z" fill="none" stroke="#ffffff" stroke-opacity=".12" stroke-width="1"></path>
    </pattern>
  </defs>
  <rect width="900" height="760" fill="url(#g)"></rect>
  <rect width="900" height="760" fill="url(#stars)"></rect>
  <rect width="900" height="760" fill="url(#hi)"></rect>
  <g fill="none" stroke="#ffffff" stroke-opacity=".2" stroke-width="2">
    <path d="M-40 280 C 160 210 320 350 500 280 S 820 190 980 270"></path>
    <path d="M-40 360 C 160 290 320 430 500 360 S 820 270 980 350"></path>
    <path d="M-40 450 C 180 380 320 520 540 450 S 840 360 980 440"></path>
    <path d="M-40 550 C 180 480 340 610 560 550 S 860 460 980 530"></path>
    <path d="M-40 650 C 200 580 360 700 580 650 S 880 560 980 630"></path>
  </g>
  <g stroke="#ffffff" stroke-opacity=".55" fill="#ffffff" fill-opacity=".07" stroke-dasharray="7 7" stroke-width="2">
    <path d="M250 470 l150 -40 l70 95 l-150 55 z"></path>
    <path d="M520 300 l110 -28 l46 86 l-110 40 z"></path>
  </g>
  <g transform="translate(480 300)">
    <circle r="50" fill="#ffffff" fill-opacity=".1"></circle>
    <circle r="30" fill="#ffffff" fill-opacity=".16"></circle>
    <path d="M0 -30 C 17 -30 26 -18 26 -6 C 26 9 0 30 0 30 C 0 30 -26 9 -26 -6 C -26 -18 -17 -30 0 -30 Z" fill="#c1272d"></path>
    <circle cy="-8" r="9" fill="#ffffff"></circle>
  </g>
  <rect width="900" height="760" fill="url(#vg)"></rect>
</svg>